HIERARCHY
ROOT Pelvis
{

	OFFSET     0.000000     0.000000     0.000000
	CHANNELS 6 Xposition Yposition Zposition Zrotation Xrotation Yrotation
	JOINT LowerBack
	{

		OFFSET    -0.000691     0.176488     0.017766
		CHANNELS 3 Zrotation Xrotation Yrotation
		JOINT Chest
		{

			OFFSET    -0.002754     0.128976    -0.000512
			CHANNELS 3 Zrotation Xrotation Yrotation
			JOINT back3
			{

				OFFSET     0.002471     0.201657    -0.000850
				CHANNELS 3 Zrotation Xrotation Yrotation
				JOINT Neck
				{

					OFFSET     0.001840     0.072570     0.000595
					CHANNELS 3 Zrotation Xrotation Yrotation
					JOINT Head
					{

						OFFSET     0.003323     0.152818     0.030907
						CHANNELS 3 Zrotation Xrotation Yrotation
						JOINT joint7
						{

							OFFSET     0.000612     0.183936     0.002625
							CHANNELS 3 Zrotation Xrotation Yrotation
							End Site
							{
								OFFSET     0.000000     0.000000     0.018310
							}
						}

					}

				}

				JOINT LeftCollar
				{

					OFFSET     0.053456     0.093486     0.002205
					CHANNELS 3 Zrotation Xrotation Yrotation
					JOINT LeftShoulder
					{

						OFFSET     0.112884    -0.020868     0.002319
						CHANNELS 3 Zrotation Xrotation Yrotation
						JOINT LeftElbow
						{

							OFFSET     0.297302     0.003523    -0.020737
							CHANNELS 3 Zrotation Xrotation Yrotation
							JOINT LeftWrist
							{

								OFFSET     0.290007     0.004431    -0.007313
								CHANNELS 3 Zrotation Xrotation Yrotation
								JOINT lf_hand
								{

									OFFSET     0.117001    -0.002589    -0.008771
									CHANNELS 3 Zrotation Xrotation Yrotation
									End Site
									{
										OFFSET     0.000000    -0.009821     0.000000
									}
								}

							}

						}

					}

				}

				JOINT RightCollar
				{

					OFFSET    -0.048666     0.096092     0.000301
					CHANNELS 3 Zrotation Xrotation Yrotation
					JOINT RightShoulder
					{

						OFFSET    -0.115072    -0.022479    -0.001894
						CHANNELS 3 Zrotation Xrotation Yrotation
						JOINT RightElbow
						{

							OFFSET    -0.297072     0.004954    -0.020752
							CHANNELS 3 Zrotation Xrotation Yrotation
							JOINT RightWrist
							{

								OFFSET    -0.292425    -0.005826    -0.023258
								CHANNELS 3 Zrotation Xrotation Yrotation
								JOINT rt_hand
								{

									OFFSET    -0.118185    -0.001061    -0.015047
									CHANNELS 3 Zrotation Xrotation Yrotation
									End Site
									{
										OFFSET     0.000000    -0.009987     0.000000
									}
								}

							}

						}

					}

				}

			}

			JOINT joint13
			{

				OFFSET     0.125914     0.117470     0.000000
				CHANNELS 3 Zrotation Xrotation Yrotation
				End Site
				{
					OFFSET     0.000000     0.000000    -0.017144
				}
			}

			JOINT joint14
			{

				OFFSET    -0.120063     0.114907     0.000000
				CHANNELS 3 Zrotation Xrotation Yrotation
				End Site
				{
					OFFSET     0.000000     0.000000    -0.016479
				}
			}

		}

	}

	JOINT RightHip
	{

		OFFSET    -0.109283    -0.057257     0.000987
		CHANNELS 3 Zrotation Xrotation Yrotation
		JOINT RightKnee
		{

			OFFSET     0.002149    -0.429339     0.038617
			CHANNELS 3 Zrotation Xrotation Yrotation
			JOINT RightAnkle
			{

				OFFSET    -0.001765    -0.522522    -0.077092
				CHANNELS 3 Zrotation Xrotation Yrotation
				JOINT r_ball
				{

					OFFSET    -0.000000    -0.037315     0.142913
					CHANNELS 3 Zrotation Xrotation Yrotation
					End Site
					{
						OFFSET     0.000000     0.000000     0.014648
					}
				}

			}

		}

	}

	JOINT LeftHip
	{

		OFFSET     0.098180    -0.056757     0.003895
		CHANNELS 3 Zrotation Xrotation Yrotation
		JOINT LeftKnee
		{

			OFFSET     0.007057    -0.430531     0.035812
			CHANNELS 3 Zrotation Xrotation Yrotation
			JOINT LeftAnkle
			{

				OFFSET    -0.005475    -0.521755    -0.078136
				CHANNELS 3 Zrotation Xrotation Yrotation
				JOINT lf_ball
				{

					OFFSET     0.000065    -0.036737     0.143337
					CHANNELS 3 Zrotation Xrotation Yrotation
					End Site
					{
						OFFSET     0.000000     0.000000     0.014648
					}
				}

			}

		}

	}

}

MOTION
Frames: 10
Frame Time: 0.033333
   -1.301600     0.972309     1.511622     4.647009     4.763985   -39.057545    -1.924174    -5.043794     7.932811    -3.743637     5.140193    14.299950     0.000000     0.000000     0.000000     0.000000     0.000000     0.000000     0.390343   -20.602369   -19.015001     0.000000     0.000000     0.000000    14.749413     1.561297     5.945475   -97.314720     5.189531     5.727681     0.513110     1.473430   -38.398808    10.124554     6.194420     8.583720     0.000000     0.000000     0.000000   -23.931023     2.131675    -4.821189    95.792030    24.959648    -6.825110    -0.621797     1.597607    42.530331    -5.240302    -4.625867     1.561787     0.000000     0.000000     0.000000     0.000000     0.000000     0.000000     0.000000     0.000000     0.000000    12.236749    21.553377   -22.775099     0.000000   -22.784529     0.000000    10.516461    13.564509    -9.093194     0.000000     0.000000     0.000000    -5.287572    -7.801502     0.327097     0.000000   -16.024721     0.000000    -4.736412    20.287294    17.034643     0.000000     0.000000     0.000000 
   -1.330738     0.966929     1.544736     5.597273     3.727644   -39.292450    -1.011745    -4.894213     8.346011    -7.074198     5.739902    15.218818     0.000000     0.000000     0.000000     0.000000     0.000000     0.000000     0.913190   -20.231464   -20.119400     0.000000     0.000000     0.000000    14.246823     1.581617     6.208538   -96.307838     2.233176     5.021440     0.511683     1.466857   -38.458824    10.322230     7.355484     8.815815     0.000000     0.000000     0.000000   -24.050159     2.320626    -5.210055    96.450462    24.872747    -5.479090    -0.614319     1.585637    42.353340    -5.947344    -4.328644     2.089274     0.000000     0.000000     0.000000     0.000000     0.000000     0.000000     0.000000     0.000000     0.000000    11.270694    24.555637   -23.306866     0.000000   -22.877842     0.000000     9.971056    12.666444    -8.272682     0.000000     0.000000     0.000000    -7.019521    -6.223527    -1.442048     0.000000   -20.774275     0.000000    -6.970292    25.591415    19.613871     0.000000     0.000000     0.000000 
   -1.359633     0.961780     1.577746     6.406775     2.745790   -39.485867    -0.371601    -4.734575     8.316491    -9.304668     6.016527    15.510747     0.000000     0.000000     0.000000     0.000000     0.000000     0.000000     1.037264   -19.125362   -20.238226     0.000000     0.000000     0.000000    13.513536     1.527983     6.339635   -95.166687     1.032210     4.916606     0.502332     1.455227   -38.086792     9.714764     8.851089     9.904951     0.000000     0.000000     0.000000   -23.830788     2.693078    -6.072567    97.347641    23.878489    -4.692521    -0.606413     1.581189    41.963303    -7.292132    -3.375094     2.219338     0.000000     0.000000     0.000000     0.000000     0.000000     0.000000     0.000000     0.000000     0.000000     9.637965    25.954746   -22.976854     0.000000   -20.730465     0.000000     7.536493    14.805190    -6.780929     0.000000     0.000000     0.000000    -7.710849    -5.363163    -2.242954     0.000000   -22.640446     0.000000    -8.225163    28.395933    21.206398     0.000000     0.000000     0.000000 
   -1.388438     0.954977     1.610678     7.005519     1.911981   -39.640152    -0.098766    -4.656106     7.570109    -9.984303     5.799541    14.719550     0.000000     0.000000     0.000000     0.000000     0.000000     0.000000     0.720047   -17.226789   -18.656197     0.000000     0.000000     0.000000    12.743532     1.433527     6.327667   -94.193649     0.322248     5.816963     0.488358     1.437857   -37.517803     8.760045    10.289585    11.246578     0.000000     0.000000     0.000000   -23.471838     3.045247    -7.000130    97.996269    23.314737    -4.523844    -0.595611     1.570264    41.542065    -8.676125    -2.216522     2.106239     0.000000     0.000000     0.000000     0.000000     0.000000     0.000000     0.000000     0.000000     0.000000     8.245728    26.258827   -22.701685     0.000000   -16.823181     0.000000     0.944572    17.440817    -3.571486     0.000000     0.000000     0.000000    -9.386287    -2.574615    -2.339071     0.000000   -20.298048     0.000000    -1.685677    18.715227    19.214104     0.000000     0.000000     0.000000 
   -1.417303     0.957077     1.643558     7.343103     1.328233   -39.770573    -0.075177    -4.635612     6.104586    -9.361857     5.243365    12.898172     0.000000     0.000000     0.000000     0.000000     0.000000     0.000000    -0.095935   -15.032588   -15.421583     0.000000     0.000000     0.000000    12.459754     1.341428     6.085171   -93.366943     0.388729     7.351814     0.480648     1.425555   -37.263123     8.195225    10.516187    11.554582     0.000000     0.000000     0.000000   -23.207460     3.248592    -7.549308    98.105690    23.563335    -4.642393    -0.586728     1.558736    41.251945    -9.515147    -1.355836     1.860616     0.000000     0.000000     0.000000     0.000000     0.000000     0.000000     0.000000     0.000000     0.000000     6.501530    25.882738   -22.206161     0.000000   -14.641414     0.000000    -1.837497    30.123249    -1.708620     0.000000     0.000000     0.000000   -10.102709    -2.102128    -1.808594     0.000000   -15.044107     0.000000    -1.776785    13.972339    18.991713     0.000000     0.000000     0.000000 
   -1.446381     0.965432     1.676413     7.346957     1.079740   -39.909779    -0.092529    -4.463521     4.274601    -7.960997     4.710034    10.644355     0.000000     0.000000     0.000000     0.000000     0.000000     0.000000    -1.402985   -13.397742   -11.425467     0.000000     0.000000     0.000000    12.783337     1.267353     5.583890   -92.763084     1.959193     8.895532     0.484615     1.431561   -37.402592     8.250801     9.268331    10.389879     0.000000     0.000000     0.000000   -23.076967     3.151894    -7.369357    98.398323    22.246519    -5.081847    -0.585340     1.559004    41.156090    -9.313908    -0.947841     1.207519     0.000000     0.000000     0.000000     0.000000     0.000000     0.000000     0.000000     0.000000     0.000000     4.156192    18.346729   -22.885241     0.000000    -3.694769     0.000000    -2.244657    29.047810    -6.391178     0.000000     0.000000     0.000000    -9.823232    -2.284544    -1.116318     0.000000    -9.862513     0.000000    -5.925404    13.920135    19.309847     0.000000     0.000000     0.000000 
   -1.475825     0.975269     1.709270     6.923891     1.196046   -40.038570     0.026763    -3.946656     2.402044    -6.260398     4.573618     8.488921     0.000000     0.000000     0.000000     0.000000     0.000000     0.000000    -2.996534   -13.095424    -7.527006     0.000000     0.000000     0.000000    13.362744     1.173322     4.957317   -92.499168     5.003603     9.739743     0.492779     1.443635   -37.692657     8.458289     7.331157     8.585647     0.000000     0.000000     0.000000   -22.979767     2.881711    -6.781490    99.036880    18.845512    -5.401841    -0.583538     1.552284    41.202717    -8.479955    -0.772756     0.202315     0.000000     0.000000     0.000000     0.000000     0.000000     0.000000     0.000000     0.000000     0.000000    -0.239236     3.590646   -24.667469     0.000000    16.477890     0.000000    -2.426884    26.474140   -16.371483     0.000000     0.000000     0.000000    -8.756795    -1.459815    -0.729290     0.000000    -7.470383     0.000000   -11.450290    16.895704    20.253366     0.000000     0.000000     0.000000 
   -1.505787     0.984371     1.742155     6.116824     1.588043   -40.162994     0.496595    -2.790259     0.278000    -4.131764     5.029579     6.385733     0.000000     0.000000     0.000000     0.000000     0.000000     0.000000    -4.762631   -14.814632    -3.564005     0.000000     0.000000     0.000000    14.075040     1.062412     4.261576   -92.991806     8.280591     9.271672     0.502142     1.455137   -38.075607     8.697954     5.076189     6.557812     0.000000     0.000000     0.000000   -22.929794     2.702477    -6.374654    98.526199    16.762018    -4.362732    -0.590989     1.564387    41.388790    -7.882382    -0.737859    -0.590928     0.000000     0.000000     0.000000     0.000000     0.000000     0.000000     0.000000     0.000000     0.000000    -2.564286    -6.750886   -25.394405     0.000000    26.679340     0.000000    -1.234732    23.960197   -23.491358     0.000000     0.000000     0.000000    -7.985353     2.847385     0.605657     0.000000   -11.422578     0.000000   -11.798379    20.022537    19.394394     0.000000     0.000000     0.000000 
   -1.536419     0.990959     1.775096     5.035495     2.187506   -40.270618     1.194773    -1.204949    -2.156279    -1.345526     5.772485     4.026399     0.000000     0.000000     0.000000     0.000000     0.000000     0.000000    -6.378168   -17.932882     0.893548     0.000000     0.000000     0.000000    14.801189     0.946178     3.588470   -94.147018    10.583033     7.871854     0.514302     1.473092   -38.489620     8.877885     2.887809     4.712493     0.000000     0.000000     0.000000   -23.035624     2.737501    -6.409410    96.720848    18.319235    -2.400074    -0.598218     1.569183    41.734547    -7.979681    -1.001488    -1.129038     0.000000     0.000000     0.000000     0.000000     0.000000     0.000000     0.000000     0.000000     0.000000    -0.751929    -8.907262   -22.767887     0.000000    19.416935     0.000000     1.250996    22.499611   -23.682989     0.000000     0.000000     0.000000    -7.743361     9.019877     3.052435     0.000000   -18.721066     0.000000    -8.458439    23.123825    16.545616     0.000000     0.000000     0.000000 
   -1.567872     0.993394     1.808118     3.777671     2.936975   -40.341225     1.844281     0.257792    -4.427093     1.687607     6.523027     1.747054     0.000000     0.000000     0.000000     0.000000     0.000000     0.000000    -7.342767   -21.222101     5.301868     0.000000     0.000000     0.000000    15.429005     0.823467     3.002312   -95.358360    11.890135     6.088238     0.523872     1.484799   -38.866283     8.971271     1.147846     3.441315     0.000000     0.000000     0.000000   -23.185738     2.852060    -6.642347    94.620667    21.111879    -0.589512    -0.612300     1.586349    42.209106    -8.311809    -1.402331    -1.463182     0.000000     0.000000     0.000000     0.000000     0.000000     0.000000     0.000000     0.000000     0.000000     2.897354    -7.779007   -18.466991     0.000000     4.338780     0.000000     4.049573    21.294493   -21.375135     0.000000     0.000000     0.000000    -6.951157    13.545005     4.356266     0.000000   -22.754330     0.000000    -7.611141    24.792179    15.275232     0.000000     0.000000     0.000000 
